<?xml version="1.0" encoding="utf-8"?>
<!DOCTYPE svg PUBLIC "-//W3C//DTD SVG 1.1//EN" "http://www.w3.org/Graphics/SVG/1.1/DTD/svg11.dtd">
<svg version="1.1" xmlns="http://www.w3.org/2000/svg" xmlns:xlink="http://www.w3.org/1999/xlink" x="0px" y="0px"
	 width="200px" height="200px" viewBox="0 0 200 200" enable-background="new 0 0 200 200" xml:space="preserve">
<g>
	<g>
		<path fill="none" stroke="#3399FF" stroke-width="2" stroke-miterlimit="10" d="M0,200c10.681-7.663,31.883-10.878,41.611-13.16
			c3.979-0.93,7.115-1.667,9.152-2.527c18.071-7.703,23.953-20.086,25.719-29.131c0.218-1.088-0.182-2.208-1.04-2.932
			c-9.418-7.979-17.345-19.948-22.356-33.723c-0.145-0.395-2.895-7.657-4.667-16.134c-0.883-6.089-0.815-8.522-0.532-15.557
			C49.296,55.119,72.294,30.155,100.495,30c0.037,0,0.656,0.041,0.691,0.041c28.341,0.395,51.399,25.895,52.209,58.042
			c0.035,0.895,0.326,4.622-0.475,11.808c-0.494,6.594-3.373,14.964-3.492,15.323c-5.076,15.788-14.511,29.728-25.293,38.238
			c-0.92,0.729-1.354,1.885-1.139,3.017c1.766,9.027,7.655,21.404,25.719,29.132c2.14,0.895,5.455,1.611,9.658,2.506
			c9.435,2.005,31.146,4.836,41.626,11.894"/>
	</g>
</g>
</svg>
