<?xml version="1.0" encoding="utf-8"?>
<svg version="1.1" xmlns="http://www.w3.org/2000/svg" xmlns:xlink="http://www.w3.org/1999/xlink" x="0px" y="0px"
	 viewBox="0 0 185 187" style="enable-background:new 0 0 185 187;" xml:space="preserve">
<style type="text/css">
	.st0{enable-background:new    ;}
	.st1{fill:#eee;}
	.st2{fill:#9575cd;}
</style>
<g class="st0">
	<g id="figures">
		<g>
			<path class="st1" d="M68.5,18c2.481,0,4.5,2.019,4.5,4.5S70.981,27,68.5,27S64,24.981,64,22.5S66.019,18,68.5,18 M24.5,133
				c2.481,0,4.5,2.019,4.5,4.5s-2.019,4.5-4.5,4.5s-4.5-2.019-4.5-4.5S22.019,133,24.5,133 M176.5,137c2.481,0,4.5,2.019,4.5,4.5
				c0,2.481-2.019,4.5-4.5,4.5s-4.5-2.019-4.5-4.5C172,139.019,174.019,137,176.5,137 M176.655,0.013l-1.958,6.366l-6.374,1.956
				l6.374,1.955l1.958,6.366l1.958-6.366l6.374-1.955l-6.374-1.956L176.655,0.013L176.655,0.013z M68.5,15
				c-4.142,0-7.5,3.358-7.5,7.5c0,4.142,3.358,7.5,7.5,7.5s7.5-3.358,7.5-7.5C76,18.358,72.642,15,68.5,15L68.5,15z M8.345,25.787
				l-1.958,6.366l-6.374,1.955l6.374,1.956l1.958,6.366l1.958-6.366l6.374-1.956l-6.374-1.955L8.345,25.787L8.345,25.787z M24.5,130
				c-4.142,0-7.5,3.358-7.5,7.5c0,4.142,3.358,7.5,7.5,7.5s7.5-3.358,7.5-7.5C32,133.358,28.642,130,24.5,130L24.5,130z M176.5,134
				c-4.142,0-7.5,3.358-7.5,7.5c0,4.142,3.358,7.5,7.5,7.5s7.5-3.358,7.5-7.5C184,137.358,180.642,134,176.5,134L176.5,134z
				 M71.181,170.344l-1.958,6.366l-6.374,1.956l6.374,1.956l1.958,6.366l1.958-6.366l6.374-1.956l-6.374-1.956L71.181,170.344
				L71.181,170.344z"/>
		</g>
	</g>
</g>
<g class="st0">
	<g id="lock">
		<g>
			<path class="st2" d="M81.903,101.745V112.8c0,1.92,1.552,3.491,3.448,3.491c1.896,0,3.448-1.571,3.448-3.491v-11.055
				c0-1.92-1.551-3.49-3.448-3.49C83.455,98.255,81.903,99.825,81.903,101.745z M132.504,95.996c-7.456,0-13.5,6.044-13.5,13.5
				c0,1.398,0.213,2.746,0.581,3.919L101,132v9h9l4.5-4.5V132h4.5v-4.5h4.5l5.085-5.085c1.24,0.376,2.555,0.581,3.919,0.581
				c7.455,0,13.5-6.044,13.5-13.5S139.959,95.996,132.504,95.996z M139.52,112.02l-9.539-9.539v-0.001
				c1.221-1.222,2.906-1.978,4.77-1.979c3.726,0.003,6.744,3.024,6.744,6.75C141.494,109.112,140.74,110.799,139.52,112.02z
				 M62.25,125.019c-4.08,0-7.355-3.316-7.355-7.448V85.92c0-4.131,3.275-7.447,7.355-7.447h48.499c4.08,0,7.355,3.316,7.355,7.447
				v6.714C120.006,92.226,121.977,92,124,92c0.338,0,0.665,0.039,1,0.051v-6.188c0-6.459-4.022-11.986-10.344-13.79V62.007
				C114.656,47.753,103.451,36,89.373,36h-5.746c-14.079,0-25.858,11.694-25.858,26.007v10.065C52.022,73.876,48,79.403,48,85.862
				v31.883C48,125.717,54.378,132,62.25,132h36.48c-1.041-2.188-1.812-4.525-2.257-6.981H62.25z M64.664,62.007
				c0-10.414,8.677-19.025,18.963-19.025h5.746c10.285,0,18.389,8.611,18.389,19.025v9.484H64.664V62.007z"/>
		</g>
	</g>
</g>
</svg>
