<?xml version="1.0" encoding="utf-8"?>
<svg version="1.1" xmlns="http://www.w3.org/2000/svg" xmlns:xlink="http://www.w3.org/1999/xlink" x="0px" y="0px"
	 viewBox="0 0 185 187" style="enable-background:new 0 0 185 187;" xml:space="preserve">
<style type="text/css">
	.st0{enable-background:new    ;}
	.st1{fill:#EEEEEE;}
	.st2{fill:#ff6b6b;}
</style>
<g class="st0">
	<g id="figures">
		<g>
			<path class="st1" d="M68.5,18c2.481,0,4.5,2.019,4.5,4.5S70.981,27,68.5,27S64,24.981,64,22.5S66.019,18,68.5,18 M24.5,133
				c2.481,0,4.5,2.019,4.5,4.5s-2.019,4.5-4.5,4.5s-4.5-2.019-4.5-4.5S22.019,133,24.5,133 M176.5,137c2.481,0,4.5,2.019,4.5,4.5
				c0,2.481-2.019,4.5-4.5,4.5s-4.5-2.019-4.5-4.5C172,139.019,174.019,137,176.5,137 M176.655,0.013l-1.958,6.366l-6.374,1.956
				l6.374,1.955l1.958,6.366l1.958-6.366l6.374-1.955l-6.374-1.956L176.655,0.013L176.655,0.013z M68.5,15
				c-4.142,0-7.5,3.358-7.5,7.5c0,4.142,3.358,7.5,7.5,7.5s7.5-3.358,7.5-7.5C76,18.358,72.642,15,68.5,15L68.5,15z M8.345,25.787
				l-1.958,6.366l-6.374,1.955l6.374,1.956l1.958,6.366l1.958-6.366l6.374-1.956l-6.374-1.955L8.345,25.787L8.345,25.787z M24.5,130
				c-4.142,0-7.5,3.358-7.5,7.5c0,4.142,3.358,7.5,7.5,7.5s7.5-3.358,7.5-7.5C32,133.358,28.642,130,24.5,130L24.5,130z M176.5,134
				c-4.142,0-7.5,3.358-7.5,7.5c0,4.142,3.358,7.5,7.5,7.5s7.5-3.358,7.5-7.5C184,137.358,180.642,134,176.5,134L176.5,134z
				 M71.181,170.344l-1.958,6.366l-6.374,1.956l6.374,1.956l1.958,6.366l1.958-6.366l6.374-1.956l-6.374-1.956L71.181,170.344
				L71.181,170.344z"/>
		</g>
	</g>
</g>
<g class="st0">
	<g id="cancel">
		<g>
			<path class="st2" d="M98,36c-32.164,0-58,25.836-58,58c0,32.164,25.836,58,58,58s58-25.836,58-58C156,61.836,130.164,36,98,36z
				 M98,141.455c-26.364,0-47.455-21.091-47.455-47.455S71.636,46.545,98,46.545S145.455,67.636,145.455,94
				S124.364,141.455,98,141.455z M117.509,74.491L117.509,74.491c-2.109-2.109-5.273-2.109-7.382,0L98,86.618L85.873,74.491
				c-2.109-2.109-5.273-2.109-7.382,0s-2.109,5.273,0,7.382L90.618,94l-12.127,12.127c-2.109,2.109-2.109,5.273,0,7.382
				c1.055,1.055,2.109,1.582,3.691,1.582c1.582,0,2.636-0.527,3.691-1.582L98,101.382l12.127,12.127
				c1.055,1.055,2.636,1.582,3.691,1.582s2.636-0.527,3.691-1.582c2.109-2.109,2.109-5.273,0-7.382L105.382,94l12.127-12.127
				C119.618,79.763,119.618,76.6,117.509,74.491z"/>
		</g>
	</g>
</g>
</svg>
