<?xml version="1.0" encoding="utf-8"?>
<svg version="1.1" xmlns="http://www.w3.org/2000/svg" xmlns:xlink="http://www.w3.org/1999/xlink" x="0px" y="0px"
	 viewBox="0 0 185 187" style="enable-background:new 0 0 185 187;" xml:space="preserve">
<style type="text/css">
	.st0{enable-background:new    ;}
	.st1{fill:#eee;}
	.st2{fill:#e57373;}
</style>
<g class="st0">
	<g id="figures">
		<g>
			<path class="st1" d="M68.5,18c2.481,0,4.5,2.019,4.5,4.5S70.981,27,68.5,27S64,24.981,64,22.5S66.019,18,68.5,18 M24.5,133
				c2.481,0,4.5,2.019,4.5,4.5s-2.019,4.5-4.5,4.5s-4.5-2.019-4.5-4.5S22.019,133,24.5,133 M176.5,137c2.481,0,4.5,2.019,4.5,4.5
				c0,2.481-2.019,4.5-4.5,4.5s-4.5-2.019-4.5-4.5C172,139.019,174.019,137,176.5,137 M176.655,0.013l-1.958,6.366l-6.374,1.956
				l6.374,1.955l1.958,6.366l1.958-6.366l6.374-1.955l-6.374-1.956L176.655,0.013L176.655,0.013z M68.5,15
				c-4.142,0-7.5,3.358-7.5,7.5c0,4.142,3.358,7.5,7.5,7.5s7.5-3.358,7.5-7.5C76,18.358,72.642,15,68.5,15L68.5,15z M8.345,25.787
				l-1.958,6.366l-6.374,1.955l6.374,1.956l1.958,6.366l1.958-6.366l6.374-1.956l-6.374-1.955L8.345,25.787L8.345,25.787z M24.5,130
				c-4.142,0-7.5,3.358-7.5,7.5c0,4.142,3.358,7.5,7.5,7.5s7.5-3.358,7.5-7.5C32,133.358,28.642,130,24.5,130L24.5,130z M176.5,134
				c-4.142,0-7.5,3.358-7.5,7.5c0,4.142,3.358,7.5,7.5,7.5s7.5-3.358,7.5-7.5C184,137.358,180.642,134,176.5,134L176.5,134z
				 M71.181,170.344l-1.958,6.366l-6.374,1.956l6.374,1.956l1.958,6.366l1.958-6.366l6.374-1.956l-6.374-1.956L71.181,170.344
				L71.181,170.344z"/>
		</g>
	</g>
</g>
<g class="st0">
	<g id="lock">
		<g>
			<path class="st2" d="M133.91,80.709V69.071C133.91,52.589,120.813,39,104.358,39h-6.716c-16.455,0-30.224,13.522-30.224,30.071
				v11.638C60.702,82.794,56,89.185,56,96.653v36.866C56,142.734,63.455,150,72.657,150h56.687c9.202,0,16.657-7.266,16.657-16.482
				V96.653C146,89.185,141.299,82.794,133.91,80.709z M75.477,69.071c0-12.042,10.142-21.998,22.164-21.998h6.716
				c12.022,0,21.493,9.956,21.493,21.998v10.965H75.477V69.071z M137.94,133.316c0,4.776-3.828,8.611-8.597,8.611H72.657
				c-4.769,0-8.597-3.835-8.597-8.611V96.72c0-4.776,3.828-8.611,8.597-8.611h56.687c4.769,0,8.597,3.835,8.597,8.611V133.316z
				 M99.657,110.982c-2.216,0-4.03,1.816-4.03,4.036V127.8c0,2.22,1.813,4.036,4.03,4.036s4.03-1.816,4.03-4.036v-12.782
				C103.686,112.798,101.873,110.982,99.657,110.982z"/>
		</g>
	</g>
</g>
</svg>
