<?xml version="1.0" encoding="utf-8"?>
<svg version="1.1" xmlns="http://www.w3.org/2000/svg" xmlns:xlink="http://www.w3.org/1999/xlink" x="0px" y="0px"
	 viewBox="0 0 185 187" style="enable-background:new 0 0 185 187;" xml:space="preserve">
<style type="text/css">
	.st0{enable-background:new    ;}
	.st1{fill:#EEEEEE;}
	.st2{fill:#9575cd;}
</style>
<g class="st0">
	<g id="figures">
		<g>
			<path class="st1" d="M68.5,18c2.481,0,4.5,2.019,4.5,4.5S70.981,27,68.5,27S64,24.981,64,22.5S66.019,18,68.5,18 M24.5,133
				c2.481,0,4.5,2.019,4.5,4.5s-2.019,4.5-4.5,4.5s-4.5-2.019-4.5-4.5S22.019,133,24.5,133 M176.5,137c2.481,0,4.5,2.019,4.5,4.5
				c0,2.481-2.019,4.5-4.5,4.5s-4.5-2.019-4.5-4.5C172,139.019,174.019,137,176.5,137 M176.655,0.013l-1.958,6.366l-6.374,1.956
				l6.374,1.955l1.958,6.366l1.958-6.366l6.374-1.955l-6.374-1.956L176.655,0.013L176.655,0.013z M68.5,15
				c-4.142,0-7.5,3.358-7.5,7.5c0,4.142,3.358,7.5,7.5,7.5s7.5-3.358,7.5-7.5C76,18.358,72.642,15,68.5,15L68.5,15z M8.345,25.787
				l-1.958,6.366l-6.374,1.955l6.374,1.956l1.958,6.366l1.958-6.366l6.374-1.956l-6.374-1.955L8.345,25.787L8.345,25.787z M24.5,130
				c-4.142,0-7.5,3.358-7.5,7.5c0,4.142,3.358,7.5,7.5,7.5s7.5-3.358,7.5-7.5C32,133.358,28.642,130,24.5,130L24.5,130z M176.5,134
				c-4.142,0-7.5,3.358-7.5,7.5c0,4.142,3.358,7.5,7.5,7.5s7.5-3.358,7.5-7.5C184,137.358,180.642,134,176.5,134L176.5,134z
				 M71.181,170.344l-1.958,6.366l-6.374,1.956l6.374,1.956l1.958,6.366l1.958-6.366l6.374-1.956l-6.374-1.956L71.181,170.344
				L71.181,170.344z"/>
		</g>
	</g>
</g>
<g class="st0">
	<g id="lock">
		<g>
			<path class="st2" d="M147.219,124h-6c-0.469,0-0.781,0.281-0.938,0.719c-0.531,1.25-0.906,2.438-1.656,3.656
				C135.719,133.125,130.563,136,125,136c-4.031,0-7.938-1.562-10.875-4.312l4.281-4.281c0.375-0.375,0.594-0.875,0.594-1.406
				c0-1.094-0.906-2-2-2h-14c-1.094,0-2,0.906-2,2v14c0,1.094,0.906,2,2,2c0.531,0,1.031-0.219,1.406-0.594l4.031-4.031
				c4.437,4.219,10.344,6.625,16.437,6.625c11.531,0,20.656-7.719,23.313-18.781c0.031-0.063,0.031-0.156,0.031-0.219h0
				C148.219,124.469,147.781,124,147.219,124z M62.251,125.018c-4.08,0-7.355-3.316-7.355-7.447V85.92
				c0-4.131,3.275-7.447,7.355-7.447h48.498c4.08,0,7.355,3.316,7.355,7.447v6.714C120.007,92.226,121.976,92,124,92
				c0.338,0,0.665,0.039,1,0.05v-6.189c0-6.458-4.022-11.985-10.343-13.789V62.007C114.657,47.753,103.451,36,89.373,36h-5.746
				c-14.078,0-25.858,11.695-25.858,26.007v10.065C52.023,73.876,48,79.404,48,85.862v31.884C48,125.716,54.378,132,62.251,132
				h36.48c-1.041-2.189-1.812-4.525-2.257-6.982H62.251z M64.664,62.007c0-10.415,8.677-19.025,18.963-19.025h5.746
				c10.286,0,18.388,8.611,18.388,19.025v9.484H64.664V62.007z M81.903,101.745V112.8c0,1.92,1.551,3.491,3.448,3.491
				c1.896,0,3.448-1.571,3.448-3.491v-11.055c0-1.92-1.552-3.491-3.448-3.491C83.454,98.255,81.903,99.826,81.903,101.745z M149,100
				c0-1.094-0.906-2-2-2c-0.531,0-1.031,0.219-1.406,0.594l-4.063,4.031C137.094,98.438,131.125,96,125,96
				c-11.531,0-20.75,7.688-23.438,18.781V115c0,0.531,0.438,1,1,1h6.219c0.469,0,0.781-0.281,0.938-0.719
				c0.531-1.25,0.906-2.437,1.656-3.656c2.906-4.75,8.063-7.625,13.625-7.625c4.031,0,7.938,1.531,10.906,4.281l-4.313,4.312
				C131.219,112.969,131,113.469,131,114c0,1.094,0.906,2,2,2h14c1.094,0,2-0.906,2-2L149,100L149,100z"/>
		</g>
	</g>
</g>
</svg>
