<?xml version="1.0" encoding="utf-8"?>
<svg version="1.1" xmlns="http://www.w3.org/2000/svg" xmlns:xlink="http://www.w3.org/1999/xlink" x="0px" y="0px"
	 viewBox="0 0 185 187" style="enable-background:new 0 0 185 187;" xml:space="preserve">
<style type="text/css">
	.st0{enable-background:new    ;}
	.st1{fill:#EEEEEE;}
	.st2{fill:#ff6b6b;}
</style>
<g class="st0">
	<g id="figures">
		<g>
			<path class="st1" d="M68.5,18c2.481,0,4.5,2.019,4.5,4.5S70.981,27,68.5,27S64,24.981,64,22.5S66.019,18,68.5,18 M24.5,133
				c2.481,0,4.5,2.019,4.5,4.5s-2.019,4.5-4.5,4.5s-4.5-2.019-4.5-4.5S22.019,133,24.5,133 M176.5,137c2.481,0,4.5,2.019,4.5,4.5
				c0,2.481-2.019,4.5-4.5,4.5s-4.5-2.019-4.5-4.5C172,139.019,174.019,137,176.5,137 M176.655,0.013l-1.958,6.366l-6.374,1.956
				l6.374,1.955l1.958,6.366l1.958-6.366l6.374-1.955l-6.374-1.956L176.655,0.013L176.655,0.013z M68.5,15
				c-4.142,0-7.5,3.358-7.5,7.5c0,4.142,3.358,7.5,7.5,7.5s7.5-3.358,7.5-7.5C76,18.358,72.642,15,68.5,15L68.5,15z M8.345,25.787
				l-1.958,6.366l-6.374,1.955l6.374,1.956l1.958,6.366l1.958-6.366l6.374-1.956l-6.374-1.955L8.345,25.787L8.345,25.787z M24.5,130
				c-4.142,0-7.5,3.358-7.5,7.5c0,4.142,3.358,7.5,7.5,7.5s7.5-3.358,7.5-7.5C32,133.358,28.642,130,24.5,130L24.5,130z M176.5,134
				c-4.142,0-7.5,3.358-7.5,7.5c0,4.142,3.358,7.5,7.5,7.5s7.5-3.358,7.5-7.5C184,137.358,180.642,134,176.5,134L176.5,134z
				 M71.181,170.344l-1.958,6.366l-6.374,1.956l6.374,1.956l1.958,6.366l1.958-6.366l6.374-1.956l-6.374-1.956L71.181,170.344
				L71.181,170.344z"/>
		</g>
	</g>
</g>
<g class="st0">
	<g id="warning">
		<g>
			<path class="st2" d="M152.49,114.486L152.49,114.486l-42.172-71.044c-2.008-3.502-5.522-6.004-9.539-7.004
				c-4.016-1.001-8.033-0.5-11.547,1.501c-2.008,1.001-4.016,3.002-5.021,5.003l-42.172,71.544
				c-4.016,7.004-1.506,16.51,5.522,20.513C49.57,136.5,52.08,137,54.591,137h85.348c4.016,0,8.033-1.501,10.543-4.503
				c3.012-3.002,4.518-6.504,4.518-10.507C154.498,119.489,153.996,116.487,152.49,114.486z M143.453,125.493L143.453,125.493
				c-1.004,1.001-2.51,1.501-3.514,1.501H54.591c-1.004,0-1.506,0-2.51-0.5c-2.51-1.501-3.012-4.503-2.008-7.004l42.674-70.544
				c0.502-0.5,1.004-1.501,1.506-1.501c2.51-1.501,5.522-0.5,7.029,1.501l42.674,70.544c0.502,0.5,0.502,1.501,0.502,2.501
				C144.959,123.492,143.955,124.492,143.453,125.493z M97.265,66.957c-3.012,0-5.021,2.001-5.021,5.003v20.012
				c0,3.002,2.008,5.003,5.021,5.003s5.021-2.001,5.021-5.003V71.96C102.285,68.958,100.277,66.957,97.265,66.957z M93.75,108.482
				L93.75,108.482c-1.004,1.001-1.506,2.001-1.506,3.502c0,1.501,0.502,2.502,1.506,3.502c1.004,1.001,2.008,1.501,3.514,1.501
				s2.51-0.5,3.514-1.501c1.004-1.001,1.506-2.502,1.506-3.502c0-1.001-0.502-2.501-1.506-3.502
				C98.771,106.481,95.758,106.481,93.75,108.482z"/>
		</g>
	</g>
</g>
</svg>
