<?xml version="1.0" encoding="utf-8"?>
<svg version="1.1" xmlns="http://www.w3.org/2000/svg" xmlns:xlink="http://www.w3.org/1999/xlink" x="0px" y="0px"
	 viewBox="0 0 185 187" style="enable-background:new 0 0 185 187;" xml:space="preserve">
<style type="text/css">
	.st0{enable-background:new    ;}
	.st1{fill:#eee;}
	.st2{fill:#f78fb3;}
</style>
<g class="st0">
	<g id="figures">
		<g>
			<path class="st1" d="M68.5,18c2.481,0,4.5,2.019,4.5,4.5S70.981,27,68.5,27S64,24.981,64,22.5S66.019,18,68.5,18 M24.5,133
				c2.481,0,4.5,2.019,4.5,4.5s-2.019,4.5-4.5,4.5s-4.5-2.019-4.5-4.5S22.019,133,24.5,133 M176.5,137c2.481,0,4.5,2.019,4.5,4.5
				c0,2.481-2.019,4.5-4.5,4.5s-4.5-2.019-4.5-4.5C172,139.019,174.019,137,176.5,137 M176.655,0.013l-1.958,6.366l-6.374,1.956
				l6.374,1.955l1.958,6.366l1.958-6.366l6.374-1.955l-6.374-1.956L176.655,0.013L176.655,0.013z M68.5,15
				c-4.142,0-7.5,3.358-7.5,7.5c0,4.142,3.358,7.5,7.5,7.5s7.5-3.358,7.5-7.5C76,18.358,72.642,15,68.5,15L68.5,15z M8.345,25.787
				l-1.958,6.366l-6.374,1.955l6.374,1.956l1.958,6.366l1.958-6.366l6.374-1.956l-6.374-1.955L8.345,25.787L8.345,25.787z M24.5,130
				c-4.142,0-7.5,3.358-7.5,7.5c0,4.142,3.358,7.5,7.5,7.5s7.5-3.358,7.5-7.5C32,133.358,28.642,130,24.5,130L24.5,130z M176.5,134
				c-4.142,0-7.5,3.358-7.5,7.5c0,4.142,3.358,7.5,7.5,7.5s7.5-3.358,7.5-7.5C184,137.358,180.642,134,176.5,134L176.5,134z
				 M71.181,170.344l-1.958,6.366l-6.374,1.956l6.374,1.956l1.958,6.366l1.958-6.366l6.374-1.956l-6.374-1.956L71.181,170.344
				L71.181,170.344z"/>
		</g>
	</g>
</g>
<g class="st0">
	<g id="check">
		<g>
			<path class="st2" d="M97.5,36C65.794,36,40,61.794,40,93.5c0,31.706,25.794,57.5,57.5,57.5c31.705,0,57.5-25.794,57.5-57.5
				C155,61.794,129.206,36,97.5,36z M97.5,141.574c-26.508,0-48.074-21.566-48.074-48.074c0-26.508,21.566-48.074,48.074-48.074
				c26.508,0,48.073,21.566,48.073,48.074C145.574,120.008,124.008,141.574,97.5,141.574z M122.375,71.431l-34.14,34.14
				L72.625,89.962c-1.841-1.84-4.825-1.84-6.665,0c-1.84,1.841-1.84,4.825,0,6.666l18.942,18.942c0.92,0.92,2.127,1.38,3.333,1.38
				s2.412-0.46,3.333-1.38l37.473-37.473c1.84-1.841,1.84-4.825,0-6.665C127.199,69.591,124.215,69.591,122.375,71.431z"/>
		</g>
	</g>
</g>
</svg>
